<mxfile host="65bd71144e">
    <diagram id="prtHgNgQTEPvFCAcTncT" name="lfp分层架构模型">
        <mxGraphModel dx="690" dy="567" grid="1" gridSize="10" guides="1" tooltips="1" connect="1" arrows="1" fold="1" page="1" pageScale="1" pageWidth="827" pageHeight="1169" math="0" shadow="0">
            <root>
                <mxCell id="0"/>
                <mxCell id="1" parent="0"/>
                <mxCell id="9" value="" style="rounded=0;whiteSpace=wrap;html=1;" vertex="1" parent="1">
                    <mxGeometry x="15" y="420" width="120" height="60" as="geometry"/>
                </mxCell>
                <mxCell id="8" value="" style="rounded=0;whiteSpace=wrap;html=1;" vertex="1" parent="1">
                    <mxGeometry x="15" y="360" width="120" height="60" as="geometry"/>
                </mxCell>
                <mxCell id="7" value="" style="rounded=0;whiteSpace=wrap;html=1;" vertex="1" parent="1">
                    <mxGeometry x="15" y="240" width="120" height="120" as="geometry"/>
                </mxCell>
                <mxCell id="6" value="" style="rounded=0;whiteSpace=wrap;html=1;" vertex="1" parent="1">
                    <mxGeometry x="15" y="180" width="120" height="60" as="geometry"/>
                </mxCell>
                <mxCell id="4" value="" style="rounded=0;whiteSpace=wrap;html=1;" vertex="1" parent="1">
                    <mxGeometry x="15" y="60" width="120" height="120" as="geometry"/>
                </mxCell>
                <mxCell id="3" value="" style="rounded=1;whiteSpace=wrap;html=1;fillColor=#FFFFFF;gradientColor=none;strokeColor=#3333FF;glass=0;shadow=0;dashed=1;strokeWidth=3;opacity=20;sketch=0;" parent="1" vertex="1">
                    <mxGeometry x="180" y="420" width="470" height="60" as="geometry"/>
                </mxCell>
                <mxCell id="oXCx3Dy2HLtcAyEhfrtt-32" value="" style="rounded=1;whiteSpace=wrap;html=1;glass=0;strokeColor=#3333FF;fillColor=#FFFFFF;shadow=0;dashed=1;strokeWidth=3;opacity=20;sketch=0;" parent="1" vertex="1">
                    <mxGeometry x="180" y="60" width="460" height="120" as="geometry"/>
                </mxCell>
                <mxCell id="MDLoCWVaZmRfnwVIIUqQ-4" value="" style="rounded=1;whiteSpace=wrap;html=1;glass=0;strokeColor=#3333FF;fillColor=#FFFFFF;shadow=0;dashed=1;strokeWidth=3;opacity=20;sketch=0;" parent="1" vertex="1">
                    <mxGeometry x="180" y="240" width="470" height="180" as="geometry"/>
                </mxCell>
                <mxCell id="oXCx3Dy2HLtcAyEhfrtt-2" value="" style="rounded=0;whiteSpace=wrap;html=1;" parent="1" vertex="1">
                    <mxGeometry x="175" y="60" width="475" height="420" as="geometry"/>
                </mxCell>
                <mxCell id="oXCx3Dy2HLtcAyEhfrtt-4" value="" style="endArrow=none;dashed=1;html=1;strokeWidth=2;" parent="1" edge="1">
                    <mxGeometry width="50" height="50" relative="1" as="geometry">
                        <mxPoint x="535" y="310" as="sourcePoint"/>
                        <mxPoint x="535" y="310" as="targetPoint"/>
                    </mxGeometry>
                </mxCell>
                <mxCell id="oXCx3Dy2HLtcAyEhfrtt-6" value="log util" style="rounded=1;whiteSpace=wrap;html=1;glass=0;fillColor=#990000;strokeColor=#d6b656;" parent="1" vertex="1">
                    <mxGeometry x="175" y="420" width="245" height="60" as="geometry"/>
                </mxCell>
                <mxCell id="oXCx3Dy2HLtcAyEhfrtt-13" value="Base Layer" style="text;html=1;align=center;verticalAlign=middle;resizable=0;points=[];autosize=1;" parent="1" vertex="1">
                    <mxGeometry x="35" y="440" width="80" height="20" as="geometry"/>
                </mxCell>
                <mxCell id="oXCx3Dy2HLtcAyEhfrtt-20" value="Windows" style="rounded=1;whiteSpace=wrap;html=1;glass=0;fillColor=#6a00ff;strokeColor=#3700CC;fontColor=#ffffff;" parent="1" vertex="1">
                    <mxGeometry x="175" y="360" width="165" height="60" as="geometry"/>
                </mxCell>
                <mxCell id="oXCx3Dy2HLtcAyEhfrtt-21" value="Linux" style="rounded=1;whiteSpace=wrap;html=1;glass=0;fillColor=#6a00ff;strokeColor=#3700CC;fontColor=#ffffff;" parent="1" vertex="1">
                    <mxGeometry x="340" y="360" width="160" height="60" as="geometry"/>
                </mxCell>
                <mxCell id="oXCx3Dy2HLtcAyEhfrtt-22" value="FreeRTOS" style="rounded=1;whiteSpace=wrap;html=1;glass=0;fillColor=#6a00ff;strokeColor=#3700CC;fontColor=#ffffff;" parent="1" vertex="1">
                    <mxGeometry x="500" y="360" width="150" height="60" as="geometry"/>
                </mxCell>
                <mxCell id="oXCx3Dy2HLtcAyEhfrtt-23" value="Adapter" style="rounded=1;whiteSpace=wrap;html=1;glass=0;fillColor=#0050ef;strokeColor=#001DBC;fontColor=#ffffff;" parent="1" vertex="1">
                    <mxGeometry x="175" y="240" width="475" height="60" as="geometry"/>
                </mxCell>
                <mxCell id="oXCx3Dy2HLtcAyEhfrtt-24" value="OS Layer" style="text;html=1;align=center;verticalAlign=middle;resizable=0;points=[];autosize=1;" parent="1" vertex="1">
                    <mxGeometry x="40" y="380" width="70" height="20" as="geometry"/>
                </mxCell>
                <mxCell id="oXCx3Dy2HLtcAyEhfrtt-25" value="OS Adapter Layer" style="text;html=1;align=center;verticalAlign=middle;resizable=0;points=[];autosize=1;" parent="1" vertex="1">
                    <mxGeometry x="20" y="290" width="110" height="20" as="geometry"/>
                </mxCell>
                <mxCell id="oXCx3Dy2HLtcAyEhfrtt-27" value="usr busybox" style="rounded=1;whiteSpace=wrap;html=1;glass=0;strokeColor=#d79b00;fillColor=#ffcd28;gradientColor=#ffa500;" parent="1" vertex="1">
                    <mxGeometry x="175" y="180" width="85" height="60" as="geometry"/>
                </mxCell>
                <mxCell id="oXCx3Dy2HLtcAyEhfrtt-28" value="other pkg libs" style="rounded=1;whiteSpace=wrap;html=1;glass=0;strokeColor=#d79b00;fillColor=#ffcd28;gradientColor=#ffa500;" parent="1" vertex="1">
                    <mxGeometry x="540" y="180" width="110" height="60" as="geometry"/>
                </mxCell>
                <mxCell id="oXCx3Dy2HLtcAyEhfrtt-30" value="App Logic Layer" style="rounded=1;whiteSpace=wrap;html=1;glass=0;strokeColor=#005700;fillColor=#008a00;fontColor=#ffffff;" parent="1" vertex="1">
                    <mxGeometry x="175" y="120" width="475" height="60" as="geometry"/>
                </mxCell>
                <mxCell id="oXCx3Dy2HLtcAyEhfrtt-31" value="Interaction&amp;nbsp;Layer" style="rounded=1;whiteSpace=wrap;html=1;glass=0;strokeColor=#006EAF;fillColor=#1ba1e2;fontColor=#ffffff;" parent="1" vertex="1">
                    <mxGeometry x="175" y="60" width="475" height="60" as="geometry"/>
                </mxCell>
                <mxCell id="oXCx3Dy2HLtcAyEhfrtt-33" value="App Base Layer" style="text;html=1;align=center;verticalAlign=middle;resizable=0;points=[];autosize=1;" parent="1" vertex="1">
                    <mxGeometry x="25" y="200" width="100" height="20" as="geometry"/>
                </mxCell>
                <mxCell id="oXCx3Dy2HLtcAyEhfrtt-35" value="App Business Layer" style="text;html=1;align=center;verticalAlign=middle;resizable=0;points=[];autosize=1;" parent="1" vertex="1">
                    <mxGeometry x="10" y="110" width="120" height="20" as="geometry"/>
                </mxCell>
                <mxCell id="O30ww7SbqkdMv2v3e8cS-4" value="lfp typesdef" style="rounded=1;whiteSpace=wrap;html=1;strokeColor=#C73500;fillColor=#fa6800;glass=0;fontColor=#ffffff;" parent="1" vertex="1">
                    <mxGeometry x="420" y="300" width="230" height="60" as="geometry"/>
                </mxCell>
                <mxCell id="O30ww7SbqkdMv2v3e8cS-7" value="" style="group;opacity=0;strokeColor=#6F0000;strokeWidth=1;rounded=1;fillColor=#a20025;fontColor=#ffffff;" parent="1" vertex="1" connectable="0">
                    <mxGeometry x="420" y="420" width="230" height="60" as="geometry"/>
                </mxCell>
                <mxCell id="oXCx3Dy2HLtcAyEhfrtt-7" value="base typesdef" style="rounded=1;whiteSpace=wrap;html=1;glass=0;fillColor=#990000;strokeColor=#d6b656;" parent="O30ww7SbqkdMv2v3e8cS-7" vertex="1">
                    <mxGeometry width="230" height="60" as="geometry"/>
                </mxCell>
                <mxCell id="O30ww7SbqkdMv2v3e8cS-8" value="arch abstract" style="rounded=1;whiteSpace=wrap;html=1;strokeColor=#C73500;strokeWidth=1;fillColor=#fa6800;fontColor=#ffffff;" parent="1" vertex="1">
                    <mxGeometry x="175" y="300" width="245" height="60" as="geometry"/>
                </mxCell>
                <mxCell id="Ziik2LFpcV_a2uRq2Qbe-1" value="&lt;span&gt;Database&lt;/span&gt;" style="rounded=1;whiteSpace=wrap;html=1;glass=0;strokeColor=#d79b00;fillColor=#ffcd28;gradientColor=#ffa500;" parent="1" vertex="1">
                    <mxGeometry x="260" y="180" width="100" height="60" as="geometry"/>
                </mxCell>
                <mxCell id="Ziik2LFpcV_a2uRq2Qbe-2" value="open sources" style="rounded=1;whiteSpace=wrap;html=1;glass=0;strokeColor=#d79b00;fillColor=#ffcd28;gradientColor=#ffa500;" parent="1" vertex="1">
                    <mxGeometry x="360" y="180" width="90" height="60" as="geometry"/>
                </mxCell>
                <mxCell id="MDLoCWVaZmRfnwVIIUqQ-1" value="&lt;span&gt;algo libs&lt;/span&gt;" style="rounded=1;whiteSpace=wrap;html=1;glass=0;strokeColor=#d79b00;fillColor=#ffcd28;gradientColor=#ffa500;" parent="1" vertex="1">
                    <mxGeometry x="450" y="180" width="90" height="60" as="geometry"/>
                </mxCell>
                <mxCell id="MDLoCWVaZmRfnwVIIUqQ-2" value="" style="rounded=1;whiteSpace=wrap;html=1;glass=0;strokeColor=#3333FF;fillColor=#FFFFFF;shadow=0;dashed=1;strokeWidth=3;opacity=20;sketch=0;" parent="1" vertex="1">
                    <mxGeometry x="180" y="180" width="470" height="60" as="geometry"/>
                </mxCell>
            </root>
        </mxGraphModel>
    </diagram>
</mxfile>